<svg width="48" height="48" viewBox="0 0 48 48" fill="none" xmlns="http://www.w3.org/2000/svg">
<path d="M44 9L44 39L36.9803 39L36.9803 26.1489L36.904 26.1489L26.4508 39L18.1339 39L30.1132 24.7447L17.7143 9L26.0692 9L36.904 22.5319L36.9803 22.5319L36.9803 9L44 9Z" fill="#3F3F46"/>
<path d="M4 39V9H16.9957C19.9006 9 22.143 9.70922 23.7229 11.1277C25.3282 12.5177 26.1309 14.3901 26.1309 16.7447C26.1309 18.305 25.7742 19.6667 25.0607 20.8298C24.3727 21.9929 23.4044 22.8582 22.1558 23.4255C23.6592 23.9362 24.8186 24.8014 25.634 26.0213C26.4494 27.2128 26.8571 28.7021 26.8571 30.4894C26.8571 33.1277 26.0035 35.2128 24.2962 36.7447C22.6144 38.2482 20.3083 39 17.3779 39H4ZM10.7272 20.9149H15.7344C17.0084 20.9149 17.9385 20.6596 18.5246 20.1489C19.1362 19.6383 19.4419 18.8582 19.4419 17.8085C19.4419 16.7589 19.1362 15.9929 18.5246 15.5106C17.9385 15 17.0084 14.7447 15.7344 14.7447H10.7272V20.9149ZM10.7272 33.2553H16.4224C17.7219 33.2553 18.6648 32.9858 19.2508 32.4468C19.8624 31.8794 20.1682 31.0426 20.1682 29.9362C20.1682 28.8298 19.8624 28.0071 19.2508 27.4681C18.6648 26.9291 17.7219 26.6596 16.4224 26.6596H10.7272V33.2553Z" fill="#3B82F6"/>
</svg>
