<svg xmlns="http://www.w3.org/2000/svg" width="40" height="55"><g fill="#b22d35" stroke-width=".28"><path d="M26.33 2.503a11.983 11.983 0 00-5.71 1.603 11.983 11.983 0 00-5.992 10.378V35.97a9.09 9.09 0 01-9.09 9.091H1.404V52.5h4.132a16.529 16.529 0 0016.53-16.529V29.36h9.09v14.05h7.438V14.483a11.983 11.983 0 00-5.992-10.378 11.983 11.983 0 00-6.274-1.603zm.175 7.437a4.545 4.545 0 012.38.607 4.545 4.545 0 012.272 3.937v7.438h-9.09v-7.438a4.545 4.545 0 012.272-3.937 4.545 4.545 0 012.166-.607z"/><path d="M5.537 14.484v19.834a1.653 1.653 0 01-1.653 1.653H1.405v7.438h4.132a7.438 7.438 0 007.438-7.438V14.484z"/></g></svg>