<svg width="76" height="76" viewBox="0 0 76 76" fill="none" xmlns="http://www.w3.org/2000/svg">
<rect x="76" width="4" height="4" transform="rotate(90 76 0)" fill="#E4E4E7"/>
<rect x="68" width="4" height="4" transform="rotate(90 68 0)" fill="#E4E4E7"/>
<rect x="68" y="8" width="4" height="4" transform="rotate(90 68 8)" fill="#E4E4E7"/>
<rect x="60" width="4" height="4" transform="rotate(90 60 0)" fill="#E4E4E7"/>
<rect x="60" y="8" width="4" height="4" transform="rotate(90 60 8)" fill="#E4E4E7"/>
<rect x="60" y="16" width="4" height="4" transform="rotate(90 60 16)" fill="#E4E4E7"/>
<rect x="52" width="4" height="4" transform="rotate(90 52 0)" fill="#E4E4E7"/>
<rect x="52" y="8" width="4" height="4" transform="rotate(90 52 8)" fill="#E4E4E7"/>
<rect x="52" y="16" width="4" height="4" transform="rotate(90 52 16)" fill="#E4E4E7"/>
<rect x="52" y="24" width="4" height="4" transform="rotate(90 52 24)" fill="#E4E4E7"/>
<rect x="44" width="4" height="4" transform="rotate(90 44 0)" fill="#E4E4E7"/>
<rect x="44" y="8" width="4" height="4" transform="rotate(90 44 8)" fill="#E4E4E7"/>
<rect x="44" y="16" width="4" height="4" transform="rotate(90 44 16)" fill="#E4E4E7"/>
<rect x="44" y="24" width="4" height="4" transform="rotate(90 44 24)" fill="#E4E4E7"/>
<rect x="44" y="32" width="4" height="4" transform="rotate(90 44 32)" fill="#E4E4E7"/>
<rect x="36" width="4" height="4" transform="rotate(90 36 0)" fill="#E4E4E7"/>
<rect x="36" y="8" width="4" height="4" transform="rotate(90 36 8)" fill="#E4E4E7"/>
<rect x="36" y="16" width="4" height="4" transform="rotate(90 36 16)" fill="#E4E4E7"/>
<rect x="36" y="24" width="4" height="4" transform="rotate(90 36 24)" fill="#E4E4E7"/>
<rect x="36" y="32" width="4" height="4" transform="rotate(90 36 32)" fill="#E4E4E7"/>
<rect x="36" y="40" width="4" height="4" transform="rotate(90 36 40)" fill="#E4E4E7"/>
<rect x="28" width="4" height="4" transform="rotate(90 28 0)" fill="#E4E4E7"/>
<rect x="28" y="8" width="4" height="4" transform="rotate(90 28 8)" fill="#E4E4E7"/>
<rect x="28" y="16" width="4" height="4" transform="rotate(90 28 16)" fill="#E4E4E7"/>
<rect x="28" y="24" width="4" height="4" transform="rotate(90 28 24)" fill="#E4E4E7"/>
<rect x="28" y="32" width="4" height="4" transform="rotate(90 28 32)" fill="#E4E4E7"/>
<rect x="28" y="40" width="4" height="4" transform="rotate(90 28 40)" fill="#E4E4E7"/>
<rect x="28" y="48" width="4" height="4" transform="rotate(90 28 48)" fill="#E4E4E7"/>
<rect x="20" width="4" height="4" transform="rotate(90 20 0)" fill="#E4E4E7"/>
<rect x="20" y="8" width="4" height="4" transform="rotate(90 20 8)" fill="#E4E4E7"/>
<rect x="20" y="16" width="4" height="4" transform="rotate(90 20 16)" fill="#E4E4E7"/>
<rect x="20" y="24" width="4" height="4" transform="rotate(90 20 24)" fill="#E4E4E7"/>
<rect x="20" y="32" width="4" height="4" transform="rotate(90 20 32)" fill="#E4E4E7"/>
<rect x="20" y="40" width="4" height="4" transform="rotate(90 20 40)" fill="#E4E4E7"/>
<rect x="20" y="48" width="4" height="4" transform="rotate(90 20 48)" fill="#E4E4E7"/>
<rect x="20" y="56" width="4" height="4" transform="rotate(90 20 56)" fill="#E4E4E7"/>
<rect x="12" width="4" height="4" transform="rotate(90 12 0)" fill="#E4E4E7"/>
<rect x="12" y="8" width="4" height="4" transform="rotate(90 12 8)" fill="#E4E4E7"/>
<rect x="12" y="16" width="4" height="4" transform="rotate(90 12 16)" fill="#E4E4E7"/>
<rect x="12" y="24" width="4" height="4" transform="rotate(90 12 24)" fill="#E4E4E7"/>
<rect x="12" y="32" width="4" height="4" transform="rotate(90 12 32)" fill="#E4E4E7"/>
<rect x="12" y="40" width="4" height="4" transform="rotate(90 12 40)" fill="#E4E4E7"/>
<rect x="12" y="48" width="4" height="4" transform="rotate(90 12 48)" fill="#E4E4E7"/>
<rect x="12" y="56" width="4" height="4" transform="rotate(90 12 56)" fill="#E4E4E7"/>
<rect x="12" y="64" width="4" height="4" transform="rotate(90 12 64)" fill="#E4E4E7"/>
<rect x="4" width="4" height="4" transform="rotate(90 4 0)" fill="#E4E4E7"/>
<rect x="4" y="8" width="4" height="4" transform="rotate(90 4 8)" fill="#E4E4E7"/>
<rect x="4" y="16" width="4" height="4" transform="rotate(90 4 16)" fill="#E4E4E7"/>
<rect x="4" y="24" width="4" height="4" transform="rotate(90 4 24)" fill="#E4E4E7"/>
<rect x="4" y="32" width="4" height="4" transform="rotate(90 4 32)" fill="#E4E4E7"/>
<rect x="4" y="40" width="4" height="4" transform="rotate(90 4 40)" fill="#E4E4E7"/>
<rect x="4" y="48" width="4" height="4" transform="rotate(90 4 48)" fill="#E4E4E7"/>
<rect x="4" y="56" width="4" height="4" transform="rotate(90 4 56)" fill="#E4E4E7"/>
<rect x="4" y="64" width="4" height="4" transform="rotate(90 4 64)" fill="#E4E4E7"/>
<rect x="4" y="72" width="4" height="4" transform="rotate(90 4 72)" fill="#E4E4E7"/>
</svg>
